<svg width="24" height="24" fill="none" xmlns="http://www.w3.org/2000/svg"><path d="M12.516 22.219l-.038-.006a.04.04 0 00.018.008.04.04 0 00.02-.002zm8.526-13.417a.258.258 0 00-.5-.03.258.258 0 01-.245.181h-.725a.257.257 0 01-.133-.037l-1.05-.629a.257.257 0 00-.133-.037h-1.678a.257.257 0 00-.143.044l-2.07 1.38a.26.26 0 00-.115.217v1.956a.259.259 0 00.137.229l2.713 1.448a.261.261 0 01.137.225l.013 1.101a.26.26 0 00.134.223l1.09.603a.26.26 0 01.134.226v2.278a.259.259 0 00.43.195c.439-.388 1.07-.953 1.153-1.082a9.773 9.773 0 001.028-2.113c.595-1.72.125-4.814-.177-6.378zm-7.617 5.392l-2.875-2.157a.188.188 0 00-.112-.037H9.074a.176.176 0 01-.126-.052l-.643-.643a.186.186 0 00-.133-.055H5.68a.178.178 0 01-.126-.303l.395-.395a.177.177 0 01.126-.052H7.59a.375.375 0 00.36-.273l.324-1.149a.187.187 0 01.094-.115L9.656 8.3a.178.178 0 00.096-.158v-.586a.18.18 0 01.032-.102l.685-.985c.02-.03.05-.052.083-.065l.958-.36a.178.178 0 00.115-.166v-.534a.178.178 0 00-.08-.148l-.96-.639a.18.18 0 00-.179-.01L9.1 5.2a.177.177 0 01-.187-.019l-.62-.49a.178.178 0 01.005-.281l.503-.37a.177.177 0 00-.004-.29l-.784-.547a.177.177 0 00-.188-.01c-.283.155-1.115.615-1.41.821a9.82 9.82 0 00-3.196 3.75c-.085.177-.19.356-.2.55-.011.193-.163.626-.226.8a.177.177 0 00.011.146l1.673 3.074a.176.176 0 00.065.067l1.76 1.057a.178.178 0 01.085.128l.352 2.556a.178.178 0 00.076.123l1.373.944c.04.027.068.069.078.116l.728 3.46c.004.02.012.04.023.057.068.11.341.515.67.575-.03.009-.057.028-.088.037.08.014.157.032.234.054.094.025.188.047.282.067.146.03.161.052.231-.079.094-.174.201-.234.281-.255a.18.18 0 00.136-.136l.472-2.189a.188.188 0 01.075-.113l2.11-1.495a.188.188 0 00.079-.154v-2.81a.187.187 0 00-.073-.15z" fill="#fff"/><path d="M12.281 2.25s-.17.01-.206.01a9.724 9.724 0 00-3.44.74c.114.079-.082.15-.082.15l.306.6H10.5l1.125.563.984-.563-.328-1.5zm4.324 3.378l.755-.656a.186.186 0 00.027-.254.188.188 0 00-.071-.058l-.882-.41a.187.187 0 00-.248.09l-.364.76a.187.187 0 00.07.24l.49.306a.187.187 0 00.223-.018zm3.535.966l-.274-.422a.272.272 0 01-.012-.02c-.049-.1-.456-.924-.796-1.243-.256-.241-.329-.172-.349-.118a.176.176 0 01-.056.075l-1.351 1.092a.187.187 0 01-.118.042h-.7a.188.188 0 00-.133.055l-.562.562a.186.186 0 00-.04.205.162.162 0 00.04.06l.562.563a.188.188 0 00.133.055h3.524a.188.188 0 00.187-.195l-.026-.617a.186.186 0 00-.03-.094z" fill="#fff"/><path d="M12 3.375a8.625 8.625 0 11-6.098 2.527A8.567 8.567 0 0112 3.375zM12 1.5C6.202 1.5 1.5 6.202 1.5 12S6.202 22.5 12 22.5 22.5 17.798 22.5 12 17.798 1.5 12 1.5z" fill="#fff"/></svg>